<svg width="23" height="23" viewBox="0 0 23 23" fill="none" xmlns="http://www.w3.org/2000/svg">
<path d="M13.9393 5.46506C14.9161 5.65477 15.8137 6.13033 16.5174 6.83087C17.2211 7.53141 17.6988 8.42505 17.8893 9.39743M13.9393 1.48291C15.9686 1.70734 17.8609 2.61202 19.3056 4.04842C20.7502 5.48481 21.6613 7.36754 21.8893 9.38747M20.8893 17.3319V20.3185C20.8905 20.5957 20.8334 20.8702 20.7218 21.1242C20.6103 21.3782 20.4466 21.6063 20.2414 21.7937C20.0362 21.9812 19.7939 22.1239 19.5301 22.2127C19.2663 22.3015 18.9867 22.3345 18.7093 22.3095C15.6322 21.9767 12.6763 20.9299 10.0793 19.2532C7.66317 17.7248 5.61467 15.6854 4.07934 13.28C2.38932 10.6829 1.33758 7.72592 1.00934 4.64872C0.984348 4.37342 1.01721 4.09596 1.10584 3.83399C1.19446 3.57203 1.33691 3.33131 1.5241 3.12716C1.7113 2.92301 1.93914 2.75989 2.19313 2.64821C2.44711 2.53652 2.72168 2.47871 2.99934 2.47845H5.99934C6.48464 2.47369 6.95513 2.64478 7.3231 2.95982C7.69107 3.27486 7.93141 3.71236 7.99934 4.19077C8.12596 5.14655 8.36079 6.08501 8.69934 6.98823C8.83388 7.34456 8.863 7.73181 8.78324 8.10411C8.70349 8.4764 8.5182 8.81814 8.24934 9.08881L6.97934 10.3531C8.40289 12.8455 10.4758 14.9092 12.9793 16.3264L14.2493 15.062C14.5212 14.7944 14.8645 14.6099 15.2385 14.5305C15.6124 14.4511 16.0014 14.4801 16.3593 14.614C17.2666 14.9511 18.2093 15.1849 19.1693 15.3109C19.6551 15.3791 20.0987 15.6227 20.4159 15.9953C20.733 16.368 20.9015 16.8436 20.8893 17.3319Z" stroke="white" stroke-linecap="round" stroke-linejoin="round"/>
</svg>
